<mxfile host="app.diagrams.net" modified="2023-05-31T08:21:36.854Z" agent="Mozilla/5.0 (Windows NT 10.0; Win64; x64) AppleWebKit/537.36 (KHTML, like Gecko) Chrome/113.0.0.0 Safari/537.36" etag="UidkzGlVbX1kLPmvflK8" version="21.1.9" type="device">
  <diagram id="C5RBs43oDa-KdzZeNtuy" name="Page-1">
    <mxGraphModel dx="1194" dy="738" grid="0" gridSize="10" guides="1" tooltips="1" connect="1" arrows="1" fold="1" page="1" pageScale="1" pageWidth="827" pageHeight="1169" math="0" shadow="0">
      <root>
        <mxCell id="WIyWlLk6GJQsqaUBKTNV-0" />
        <mxCell id="WIyWlLk6GJQsqaUBKTNV-1" parent="WIyWlLk6GJQsqaUBKTNV-0" />
        <mxCell id="hzo_TGVIDgafTTq2jEPT-28" value="&lt;p style=&quot;margin:0px;margin-top:4px;text-align:center;&quot;&gt;&lt;i&gt;&amp;lt;&amp;lt;Interface&amp;gt;&amp;gt;&lt;/i&gt;&lt;br&gt;&lt;b&gt;&lt;i&gt;RobotFactory&lt;/i&gt;&lt;/b&gt;&lt;/p&gt;&lt;hr size=&quot;1&quot;&gt;&lt;p style=&quot;margin:0px;margin-left:4px;&quot;&gt;&lt;/p&gt;&lt;p style=&quot;margin:0px;margin-left:4px;&quot;&gt;&lt;i&gt;+ createRobot(): Robot&lt;/i&gt;&lt;/p&gt;&lt;p style=&quot;margin:0px;margin-left:4px;&quot;&gt;&lt;i&gt;+ createHead&lt;span style=&quot;background-color: initial;&quot;&gt;(): Head&lt;/span&gt;&lt;/i&gt;&lt;/p&gt;&lt;p style=&quot;border-color: var(--border-color); margin: 0px 0px 0px 4px;&quot;&gt;&lt;i&gt;+ createBody(): Body&lt;/i&gt;&lt;/p&gt;&lt;p style=&quot;border-color: var(--border-color); margin: 0px 0px 0px 4px;&quot;&gt;&lt;i&gt;+ createHand(): Hand&lt;/i&gt;&lt;/p&gt;&lt;p style=&quot;border-color: var(--border-color); margin: 0px 0px 0px 4px;&quot;&gt;&lt;i&gt;+ createLeg(): Leg&lt;/i&gt;&lt;/p&gt;" style="verticalAlign=top;align=left;overflow=fill;fontSize=12;fontFamily=Helvetica;html=1;" parent="WIyWlLk6GJQsqaUBKTNV-1" vertex="1">
          <mxGeometry x="375.5" y="237" width="145" height="126" as="geometry" />
        </mxCell>
        <mxCell id="hzo_TGVIDgafTTq2jEPT-30" value="RobotDirector" style="swimlane;fontStyle=1;align=center;verticalAlign=top;childLayout=stackLayout;horizontal=1;startSize=35;horizontalStack=0;resizeParent=1;resizeParentMax=0;resizeLast=0;collapsible=1;marginBottom=0;" parent="WIyWlLk6GJQsqaUBKTNV-1" vertex="1">
          <mxGeometry x="63" y="267" width="238" height="65" as="geometry" />
        </mxCell>
        <mxCell id="hzo_TGVIDgafTTq2jEPT-33" value="+ assembleRobot(RobotFacotry): Robot" style="text;strokeColor=none;fillColor=none;align=left;verticalAlign=top;spacingLeft=4;spacingRight=4;overflow=hidden;rotatable=0;points=[[0,0.5],[1,0.5]];portConstraint=eastwest;fontStyle=4" parent="hzo_TGVIDgafTTq2jEPT-30" vertex="1">
          <mxGeometry y="35" width="238" height="30" as="geometry" />
        </mxCell>
        <mxCell id="hzo_TGVIDgafTTq2jEPT-34" value="WoodRobotFactory" style="swimlane;fontStyle=1;align=center;verticalAlign=top;childLayout=stackLayout;horizontal=1;startSize=26;horizontalStack=0;resizeParent=1;resizeParentMax=0;resizeLast=0;collapsible=1;marginBottom=0;" parent="WIyWlLk6GJQsqaUBKTNV-1" vertex="1">
          <mxGeometry x="371" y="458.5" width="154" height="106" as="geometry" />
        </mxCell>
        <mxCell id="hzo_TGVIDgafTTq2jEPT-35" value="+ createRobot(): Robot&#xa;+ createHead(): Head&#xa;+ createBody(): Body&#xa;+ createHand(): Hand&#xa;+ createLeg(): Leg" style="text;strokeColor=none;fillColor=none;align=left;verticalAlign=top;spacingLeft=4;spacingRight=4;overflow=hidden;rotatable=0;points=[[0,0.5],[1,0.5]];portConstraint=eastwest;" parent="hzo_TGVIDgafTTq2jEPT-34" vertex="1">
          <mxGeometry y="26" width="154" height="80" as="geometry" />
        </mxCell>
        <mxCell id="hzo_TGVIDgafTTq2jEPT-59" value="WoodRobot" style="html=1;" parent="WIyWlLk6GJQsqaUBKTNV-1" vertex="1">
          <mxGeometry x="586" y="458" width="76" height="35" as="geometry" />
        </mxCell>
        <mxCell id="kusxtE2EhlwemqQMvcZW-3" value="&lt;i&gt;«interface»&lt;br&gt;&lt;b&gt;Robot&lt;/b&gt;&lt;/i&gt;" style="html=1;" parent="WIyWlLk6GJQsqaUBKTNV-1" vertex="1">
          <mxGeometry x="582" y="385" width="84" height="37" as="geometry" />
        </mxCell>
        <mxCell id="kusxtE2EhlwemqQMvcZW-4" value="" style="html=1;verticalAlign=bottom;labelBackgroundColor=none;startArrow=oval;startFill=0;startSize=8;endArrow=none;rounded=0;entryX=0.5;entryY=0;entryDx=0;entryDy=0;entryPerimeter=0;dashed=1;dashPattern=8 8;exitX=0.504;exitY=1.033;exitDx=0;exitDy=0;exitPerimeter=0;" parent="WIyWlLk6GJQsqaUBKTNV-1" source="hzo_TGVIDgafTTq2jEPT-33" target="kusxtE2EhlwemqQMvcZW-5" edge="1">
          <mxGeometry x="-0.0549" y="19" relative="1" as="geometry">
            <mxPoint x="207.20930232558135" y="319" as="sourcePoint" />
            <mxPoint x="120" y="557" as="targetPoint" />
            <mxPoint x="-1" as="offset" />
          </mxGeometry>
        </mxCell>
        <mxCell id="kusxtE2EhlwemqQMvcZW-5" value="&lt;div&gt;&lt;span style=&quot;background-color: initial;&quot;&gt;// some code...&lt;/span&gt;&lt;br&gt;&lt;/div&gt;&lt;div&gt;for (int comp : comps) {&lt;/div&gt;&lt;div&gt;&amp;nbsp; &amp;nbsp; createComp(robotFactory, robot, comp)；&lt;/div&gt;&lt;div&gt;&lt;span style=&quot;&quot;&gt;		&lt;/span&gt;}&lt;/div&gt;&lt;div&gt;// some code...&lt;/div&gt;" style="shape=note2;boundedLbl=1;whiteSpace=wrap;html=1;size=25;verticalAlign=middle;align=left;labelPosition=center;verticalLabelPosition=middle;" parent="WIyWlLk6GJQsqaUBKTNV-1" vertex="1">
          <mxGeometry x="57" y="460" width="250" height="99" as="geometry" />
        </mxCell>
        <mxCell id="kusxtE2EhlwemqQMvcZW-6" style="edgeStyle=orthogonalEdgeStyle;rounded=0;orthogonalLoop=1;jettySize=auto;html=1;dashed=1;dashPattern=8 8;endSize=10;endArrow=open;endFill=0;entryX=0;entryY=0.5;entryDx=0;entryDy=0;exitX=1;exitY=0.5;exitDx=0;exitDy=0;" parent="WIyWlLk6GJQsqaUBKTNV-1" source="hzo_TGVIDgafTTq2jEPT-30" target="hzo_TGVIDgafTTq2jEPT-28" edge="1">
          <mxGeometry relative="1" as="geometry">
            <mxPoint x="350" y="349" as="sourcePoint" />
            <mxPoint x="376" y="402" as="targetPoint" />
          </mxGeometry>
        </mxCell>
        <mxCell id="kusxtE2EhlwemqQMvcZW-7" value="" style="endArrow=block;endSize=10;endFill=0;shadow=0;strokeWidth=1;rounded=0;edgeStyle=elbowEdgeStyle;elbow=vertical;entryX=0.5;entryY=1;entryDx=0;entryDy=0;exitX=0.5;exitY=0;exitDx=0;exitDy=0;dashed=1;dashPattern=8 8;labelBackgroundColor=none;fontColor=default;" parent="WIyWlLk6GJQsqaUBKTNV-1" source="hzo_TGVIDgafTTq2jEPT-34" target="hzo_TGVIDgafTTq2jEPT-28" edge="1">
          <mxGeometry width="160" relative="1" as="geometry">
            <mxPoint x="540" y="471" as="sourcePoint" />
            <mxPoint x="447.5" y="378" as="targetPoint" />
          </mxGeometry>
        </mxCell>
        <mxCell id="kusxtE2EhlwemqQMvcZW-8" value="" style="endArrow=block;endSize=10;endFill=0;shadow=0;strokeWidth=1;rounded=0;edgeStyle=elbowEdgeStyle;elbow=vertical;entryX=0.5;entryY=1;entryDx=0;entryDy=0;dashed=1;dashPattern=8 8;labelBackgroundColor=none;fontColor=default;" parent="WIyWlLk6GJQsqaUBKTNV-1" source="hzo_TGVIDgafTTq2jEPT-59" target="kusxtE2EhlwemqQMvcZW-3" edge="1">
          <mxGeometry width="160" relative="1" as="geometry">
            <mxPoint x="437.5" y="459" as="sourcePoint" />
            <mxPoint x="437.5" y="363.5" as="targetPoint" />
          </mxGeometry>
        </mxCell>
        <mxCell id="kusxtE2EhlwemqQMvcZW-9" style="edgeStyle=orthogonalEdgeStyle;rounded=0;orthogonalLoop=1;jettySize=auto;html=1;dashed=1;dashPattern=8 8;endSize=10;endArrow=open;endFill=0;entryX=0.5;entryY=1;entryDx=0;entryDy=0;exitX=1;exitY=0.5;exitDx=0;exitDy=0;" parent="WIyWlLk6GJQsqaUBKTNV-1" source="hzo_TGVIDgafTTq2jEPT-35" target="hzo_TGVIDgafTTq2jEPT-59" edge="1">
          <mxGeometry relative="1" as="geometry">
            <mxPoint x="565.5" y="460.5" as="sourcePoint" />
            <mxPoint x="650.5" y="499" as="targetPoint" />
            <Array as="points">
              <mxPoint x="624" y="525" />
            </Array>
          </mxGeometry>
        </mxCell>
        <mxCell id="kusxtE2EhlwemqQMvcZW-15" value="WoodHead" style="html=1;" parent="WIyWlLk6GJQsqaUBKTNV-1" vertex="1">
          <mxGeometry x="681" y="458" width="76" height="35" as="geometry" />
        </mxCell>
        <mxCell id="kusxtE2EhlwemqQMvcZW-16" value="&lt;i&gt;«interface»&lt;br&gt;&lt;b&gt;Head&lt;/b&gt;&lt;/i&gt;" style="html=1;" parent="WIyWlLk6GJQsqaUBKTNV-1" vertex="1">
          <mxGeometry x="677" y="385" width="84" height="37" as="geometry" />
        </mxCell>
        <mxCell id="kusxtE2EhlwemqQMvcZW-17" value="" style="endArrow=block;endSize=10;endFill=0;shadow=0;strokeWidth=1;rounded=0;edgeStyle=elbowEdgeStyle;elbow=vertical;entryX=0.5;entryY=1;entryDx=0;entryDy=0;dashed=1;dashPattern=8 8;labelBackgroundColor=none;fontColor=default;" parent="WIyWlLk6GJQsqaUBKTNV-1" source="kusxtE2EhlwemqQMvcZW-15" target="kusxtE2EhlwemqQMvcZW-16" edge="1">
          <mxGeometry width="160" relative="1" as="geometry">
            <mxPoint x="532.5" y="459" as="sourcePoint" />
            <mxPoint x="532.5" y="363.5" as="targetPoint" />
          </mxGeometry>
        </mxCell>
        <mxCell id="kusxtE2EhlwemqQMvcZW-18" style="edgeStyle=orthogonalEdgeStyle;rounded=0;orthogonalLoop=1;jettySize=auto;html=1;dashed=1;dashPattern=8 8;endSize=10;endArrow=open;endFill=0;entryX=0.5;entryY=1;entryDx=0;entryDy=0;exitX=1;exitY=0.5;exitDx=0;exitDy=0;" parent="WIyWlLk6GJQsqaUBKTNV-1" source="hzo_TGVIDgafTTq2jEPT-35" target="kusxtE2EhlwemqQMvcZW-15" edge="1">
          <mxGeometry relative="1" as="geometry">
            <mxPoint x="552.5" y="492.5" as="sourcePoint" />
            <mxPoint x="616.5" y="495" as="targetPoint" />
          </mxGeometry>
        </mxCell>
      </root>
    </mxGraphModel>
  </diagram>
</mxfile>
